{
    "asset" : {
        "generator" : "Khronos glTF Blender I/O v1.8.19",
        "version" : "2.0"
    },
    "scene" : 0,
    "scenes" : [
        {
            "name" : "Scene",
            "nodes" : [
                0,
                1,
                2,
                3,
                4,
                5,
                6,
                7
            ]
        }
    ],
    "nodes" : [
        {
            "mesh" : 0,
            "name" : "Text.004",
            "rotation" : [
                0,
                -0.9999964833259583,
                0,
                -0.002657573204487562
            ],
            "scale" : [
                0.3047115206718445,
                0.16719292104244232,
                0.3047115206718445
            ],
            "translation" : [
                0.5264751315116882,
                0.0015376079827547073,
                6.450668811798096
            ]
        },
        {
            "mesh" : 1,
            "name" : "Text.005",
            "rotation" : [
                0,
                0.7082387804985046,
                0,
                0.7059729695320129
            ],
            "scale" : [
                0.3539072275161743,
                0.194186270236969,
                0.3539072275161743
            ],
            "translation" : [
                -6.29573392868042,
                0.0015376079827547073,
                0.3374263346195221
            ]
        },
        {
            "mesh" : 2,
            "name" : "Text.006",
            "scale" : [
                0.3539072275161743,
                0.194186270236969,
                0.3539072275161743
            ],
            "translation" : [
                -0.2230922281742096,
                0.0015376079827547073,
                -6.303033351898193
            ]
        },
        {
            "mesh" : 3,
            "name" : "Text.007",
            "rotation" : [
                0,
                -0.7071068286895752,
                0,
                0.7071068286895752
            ],
            "scale" : [
                0.3539072275161743,
                0.194186270236969,
                0.3539072275161743
            ],
            "translation" : [
                6.23829460144043,
                0.0015376079827547073,
                -0.49479424953460693
            ]
        },
        {
            "mesh" : 4,
            "name" : "Plane.001",
            "scale" : [
                1,
                -0.12569785118103027,
                1
            ],
            "translation" : [
                7,
                0,
                0
            ]
        },
        {
            "mesh" : 5,
            "name" : "Plane.002",
            "rotation" : [
                0,
                0.7071068286895752,
                0,
                0.7071068286895752
            ],
            "scale" : [
                1,
                -0.12569785118103027,
                1
            ],
            "translation" : [
                -0.007172450423240662,
                0,
                -7.017382621765137
            ]
        },
        {
            "mesh" : 6,
            "name" : "Plane.003",
            "rotation" : [
                0,
                0.9999988079071045,
                0,
                -0.0016024545766413212
            ],
            "scale" : [
                1,
                -0.12569785118103027,
                1
            ],
            "translation" : [
                -7.01077127456665,
                0,
                0.005596185103058815
            ]
        },
        {
            "mesh" : 7,
            "name" : "Plane.004",
            "rotation" : [
                0,
                -0.7089834213256836,
                0,
                0.7052252292633057
            ],
            "scale" : [
                1,
                -0.12569785118103027,
                1
            ],
            "translation" : [
                0.001258164644241333,
                0,
                7.176953315734863
            ]
        }
    ],
    "materials" : [
        {
            "doubleSided" : true,
            "name" : "text",
            "pbrMetallicRoughness" : {
                "baseColorFactor" : [
                    0.8000000715255737,
                    0.7257896661758423,
                    0.7481429576873779,
                    1
                ],
                "metallicFactor" : 0,
                "roughnessFactor" : 0.4000000059604645
            }
        },
        {
            "doubleSided" : true,
            "name" : "arrow",
            "pbrMetallicRoughness" : {
                "baseColorFactor" : [
                    0.8000000715255737,
                    0.07855111360549927,
                    0,
                    1
                ],
                "metallicFactor" : 0,
                "roughnessFactor" : 0.4000000059604645
            }
        }
    ],
    "meshes" : [
        {
            "name" : "Text.005",
            "primitives" : [
                {
                    "attributes" : {
                        "POSITION" : 0,
                        "NORMAL" : 1,
                        "TEXCOORD_0" : 2
                    },
                    "indices" : 3
                }
            ]
        },
        {
            "name" : "Text.006",
            "primitives" : [
                {
                    "attributes" : {
                        "POSITION" : 4,
                        "NORMAL" : 5,
                        "TEXCOORD_0" : 6
                    },
                    "indices" : 7
                }
            ]
        },
        {
            "name" : "Text.007",
            "primitives" : [
                {
                    "attributes" : {
                        "POSITION" : 8,
                        "NORMAL" : 9,
                        "TEXCOORD_0" : 10
                    },
                    "indices" : 11,
                    "material" : 0
                }
            ]
        },
        {
            "name" : "Text.008",
            "primitives" : [
                {
                    "attributes" : {
                        "POSITION" : 12,
                        "NORMAL" : 13,
                        "TEXCOORD_0" : 14
                    },
                    "indices" : 15
                }
            ]
        },
        {
            "name" : "Plane.002",
            "primitives" : [
                {
                    "attributes" : {
                        "POSITION" : 16,
                        "NORMAL" : 17,
                        "TEXCOORD_0" : 18
                    },
                    "indices" : 19,
                    "material" : 1
                }
            ]
        },
        {
            "name" : "Plane.004",
            "primitives" : [
                {
                    "attributes" : {
                        "POSITION" : 20,
                        "NORMAL" : 21,
                        "TEXCOORD_0" : 22
                    },
                    "indices" : 19,
                    "material" : 1
                }
            ]
        },
        {
            "name" : "Plane.005",
            "primitives" : [
                {
                    "attributes" : {
                        "POSITION" : 23,
                        "NORMAL" : 24,
                        "TEXCOORD_0" : 25
                    },
                    "indices" : 19,
                    "material" : 1
                }
            ]
        },
        {
            "name" : "Plane.006",
            "primitives" : [
                {
                    "attributes" : {
                        "POSITION" : 26,
                        "NORMAL" : 27,
                        "TEXCOORD_0" : 28
                    },
                    "indices" : 19,
                    "material" : 1
                }
            ]
        }
    ],
    "accessors" : [
        {
            "bufferView" : 0,
            "componentType" : 5126,
            "count" : 1102,
            "max" : [
                3.321000337600708,
                0.059999994933605194,
                0.009000000543892384
            ],
            "min" : [
                0.07600000500679016,
                -0.059999994933605194,
                -0.6910000443458557
            ],
            "type" : "VEC3"
        },
        {
            "bufferView" : 1,
            "componentType" : 5126,
            "count" : 1102,
            "type" : "VEC3"
        },
        {
            "bufferView" : 2,
            "componentType" : 5126,
            "count" : 1102,
            "type" : "VEC2"
        },
        {
            "bufferView" : 3,
            "componentType" : 5123,
            "count" : 2052,
            "type" : "SCALAR"
        },
        {
            "bufferView" : 4,
            "componentType" : 5126,
            "count" : 211,
            "max" : [
                2.0460000038146973,
                0.059999994933605194,
                0
            ],
            "min" : [
                0.07400000095367432,
                -0.059999994933605194,
                -0.6820000410079956
            ],
            "type" : "VEC3"
        },
        {
            "bufferView" : 5,
            "componentType" : 5126,
            "count" : 211,
            "type" : "VEC3"
        },
        {
            "bufferView" : 6,
            "componentType" : 5126,
            "count" : 211,
            "type" : "VEC2"
        },
        {
            "bufferView" : 7,
            "componentType" : 5123,
            "count" : 384,
            "type" : "SCALAR"
        },
        {
            "bufferView" : 8,
            "componentType" : 5126,
            "count" : 892,
            "max" : [
                1.2079999446868896,
                0.059999994933605194,
                0.009000000543892384
            ],
            "min" : [
                0.06100000441074371,
                -0.059999994933605194,
                -0.6820000410079956
            ],
            "type" : "VEC3"
        },
        {
            "bufferView" : 9,
            "componentType" : 5126,
            "count" : 892,
            "type" : "VEC3"
        },
        {
            "bufferView" : 10,
            "componentType" : 5126,
            "count" : 892,
            "type" : "VEC2"
        },
        {
            "bufferView" : 11,
            "componentType" : 5123,
            "count" : 1596,
            "type" : "SCALAR"
        },
        {
            "bufferView" : 12,
            "componentType" : 5126,
            "count" : 1434,
            "max" : [
                2.9100003242492676,
                0.059999994933605194,
                0.009000000543892384
            ],
            "min" : [
                0.07700000703334808,
                -0.059999994933605194,
                -0.6910000443458557
            ],
            "type" : "VEC3"
        },
        {
            "bufferView" : 13,
            "componentType" : 5126,
            "count" : 1434,
            "type" : "VEC3"
        },
        {
            "bufferView" : 14,
            "componentType" : 5126,
            "count" : 1434,
            "type" : "VEC2"
        },
        {
            "bufferView" : 15,
            "componentType" : 5123,
            "count" : 2592,
            "type" : "SCALAR"
        },
        {
            "bufferView" : 16,
            "componentType" : 5126,
            "count" : 3,
            "max" : [
                0.23390012979507446,
                0,
                1
            ],
            "min" : [
                -1,
                0,
                -1
            ],
            "type" : "VEC3"
        },
        {
            "bufferView" : 17,
            "componentType" : 5126,
            "count" : 3,
            "type" : "VEC3"
        },
        {
            "bufferView" : 18,
            "componentType" : 5126,
            "count" : 3,
            "type" : "VEC2"
        },
        {
            "bufferView" : 19,
            "componentType" : 5123,
            "count" : 3,
            "type" : "SCALAR"
        },
        {
            "bufferView" : 20,
            "componentType" : 5126,
            "count" : 3,
            "max" : [
                0.23390012979507446,
                0,
                1
            ],
            "min" : [
                -1,
                0,
                -1
            ],
            "type" : "VEC3"
        },
        {
            "bufferView" : 21,
            "componentType" : 5126,
            "count" : 3,
            "type" : "VEC3"
        },
        {
            "bufferView" : 22,
            "componentType" : 5126,
            "count" : 3,
            "type" : "VEC2"
        },
        {
            "bufferView" : 23,
            "componentType" : 5126,
            "count" : 3,
            "max" : [
                0.23390012979507446,
                0,
                1
            ],
            "min" : [
                -1,
                0,
                -1
            ],
            "type" : "VEC3"
        },
        {
            "bufferView" : 24,
            "componentType" : 5126,
            "count" : 3,
            "type" : "VEC3"
        },
        {
            "bufferView" : 25,
            "componentType" : 5126,
            "count" : 3,
            "type" : "VEC2"
        },
        {
            "bufferView" : 26,
            "componentType" : 5126,
            "count" : 3,
            "max" : [
                0.23390012979507446,
                0,
                1
            ],
            "min" : [
                -1,
                0,
                -1
            ],
            "type" : "VEC3"
        },
        {
            "bufferView" : 27,
            "componentType" : 5126,
            "count" : 3,
            "type" : "VEC3"
        },
        {
            "bufferView" : 28,
            "componentType" : 5126,
            "count" : 3,
            "type" : "VEC2"
        }
    ],
    "bufferViews" : [
        {
            "buffer" : 0,
            "byteLength" : 13224,
            "byteOffset" : 0
        },
        {
            "buffer" : 0,
            "byteLength" : 13224,
            "byteOffset" : 13224
        },
        {
            "buffer" : 0,
            "byteLength" : 8816,
            "byteOffset" : 26448
        },
        {
            "buffer" : 0,
            "byteLength" : 4104,
            "byteOffset" : 35264
        },
        {
            "buffer" : 0,
            "byteLength" : 2532,
            "byteOffset" : 39368
        },
        {
            "buffer" : 0,
            "byteLength" : 2532,
            "byteOffset" : 41900
        },
        {
            "buffer" : 0,
            "byteLength" : 1688,
            "byteOffset" : 44432
        },
        {
            "buffer" : 0,
            "byteLength" : 768,
            "byteOffset" : 46120
        },
        {
            "buffer" : 0,
            "byteLength" : 10704,
            "byteOffset" : 46888
        },
        {
            "buffer" : 0,
            "byteLength" : 10704,
            "byteOffset" : 57592
        },
        {
            "buffer" : 0,
            "byteLength" : 7136,
            "byteOffset" : 68296
        },
        {
            "buffer" : 0,
            "byteLength" : 3192,
            "byteOffset" : 75432
        },
        {
            "buffer" : 0,
            "byteLength" : 17208,
            "byteOffset" : 78624
        },
        {
            "buffer" : 0,
            "byteLength" : 17208,
            "byteOffset" : 95832
        },
        {
            "buffer" : 0,
            "byteLength" : 11472,
            "byteOffset" : 113040
        },
        {
            "buffer" : 0,
            "byteLength" : 5184,
            "byteOffset" : 124512
        },
        {
            "buffer" : 0,
            "byteLength" : 36,
            "byteOffset" : 129696
        },
        {
            "buffer" : 0,
            "byteLength" : 36,
            "byteOffset" : 129732
        },
        {
            "buffer" : 0,
            "byteLength" : 24,
            "byteOffset" : 129768
        },
        {
            "buffer" : 0,
            "byteLength" : 6,
            "byteOffset" : 129792
        },
        {
            "buffer" : 0,
            "byteLength" : 36,
            "byteOffset" : 129800
        },
        {
            "buffer" : 0,
            "byteLength" : 36,
            "byteOffset" : 129836
        },
        {
            "buffer" : 0,
            "byteLength" : 24,
            "byteOffset" : 129872
        },
        {
            "buffer" : 0,
            "byteLength" : 36,
            "byteOffset" : 129896
        },
        {
            "buffer" : 0,
            "byteLength" : 36,
            "byteOffset" : 129932
        },
        {
            "buffer" : 0,
            "byteLength" : 24,
            "byteOffset" : 129968
        },
        {
            "buffer" : 0,
            "byteLength" : 36,
            "byteOffset" : 129992
        },
        {
            "buffer" : 0,
            "byteLength" : 36,
            "byteOffset" : 130028
        },
        {
            "buffer" : 0,
            "byteLength" : 24,
            "byteOffset" : 130064
        }
    ],
    "buffers" : [
        {
            "byteLength" : 130088,
            "uri" : "scene.bin"
        }
    ]
}
